<svg width="17" height="13" viewBox="0 0 17 13" fill="none" xmlns="http://www.w3.org/2000/svg">
<path d="M0.499999 6.5053C0.505559 7.07565 0.74782 7.62096 1.17428 8.02305L6.07714 12.6847C6.29127 12.8867 6.58093 13 6.88286 13C7.18478 13 7.47444 12.8867 7.68857 12.6847C7.79569 12.584 7.88071 12.4641 7.93873 12.332C7.99675 12.1998 8.02663 12.0581 8.02663 11.915C8.02663 11.7719 7.99675 11.6302 7.93873 11.4981C7.88071 11.366 7.79569 11.2461 7.68857 11.1453L3.92857 7.58941L15.3571 7.58941C15.6602 7.58941 15.9509 7.47519 16.1653 7.27188C16.3796 7.06857 16.5 6.79282 16.5 6.5053C16.5 6.21777 16.3796 5.94202 16.1653 5.73871C15.9509 5.5354 15.6602 5.42118 15.3571 5.42118L3.92857 5.42118L7.68857 1.85444C7.90378 1.65174 8.02528 1.37624 8.02635 1.08856C8.02742 0.800873 7.90797 0.524567 7.69429 0.320424C7.4806 0.116281 7.19017 0.00102248 6.8869 5.83532e-06C6.58362 -0.00101081 6.29235 0.112299 6.07714 0.315004L1.17428 4.97669C0.745041 5.38145 0.50255 5.93117 0.499999 6.5053Z" fill="white"/>
</svg>
